<svg xmlns="http://www.w3.org/2000/svg" xmlns:xlink="http://www.w3.org/1999/xlink" viewBox="0,0,256,256" width="80px" height="80px" fill-rule="nonzero"><g fill="none" fill-rule="nonzero" stroke="none" stroke-width="1" stroke-linecap="butt" stroke-linejoin="miter" stroke-miterlimit="10" stroke-dasharray="" stroke-dashoffset="0" font-family="none" font-weight="none" font-size="none" text-anchor="none" style="mix-blend-mode: normal"><g transform="scale(3.2,3.2)"><path d="M40,77.5c-20.678,0 -37.5,-16.822 -37.5,-37.5c0,-20.678 16.822,-37.5 37.5,-37.5c20.678,0 37.5,16.822 37.5,37.5c0,20.678 -16.822,37.5 -37.5,37.5z" fill="#a40000"></path><path d="M40,3c20.402,0 37,16.598 37,37c0,20.402 -16.598,37 -37,37c-20.402,0 -37,-16.598 -37,-37c0,-20.402 16.598,-37 37,-37M40,2c-20.987,0 -38,17.013 -38,38c0,20.987 17.013,38 38,38c20.987,0 38,-17.013 38,-38c0,-20.987 -17.013,-38 -38,-38z" fill="#c74343"></path><path transform="translate(39.99901,96.56854) rotate(-134.999)" d="M37,20h6v40h-6z" fill="#ffffff"></path><path transform="translate(-16.56854,40.00099) rotate(-45.001)" d="M37,20h6v40h-6z" fill="#ffffff"></path></g></g></svg>